<?xml version="1.0" encoding="utf-8"?>
<!-- Generator: Adobe Illustrator 16.0.0, SVG Export Plug-In . SVG Version: 6.00 Build 0)  -->
<!DOCTYPE svg PUBLIC "-//W3C//DTD SVG 1.1//EN" "http://www.w3.org/Graphics/SVG/1.1/DTD/svg11.dtd">
<svg version="1.1" id="Layer_1" xmlns="http://www.w3.org/2000/svg" xmlns:xlink="http://www.w3.org/1999/xlink" x="0px" y="0px"
	 width="800px" height="800px" viewBox="0 0 800 800" enable-background="new 0 0 800 800" xml:space="preserve">
<path fill="#2C2B37" d="M507.055,440.426c6.816-15.448,10.625-32.643,10.625-40.38c0-67.063-52.103-121.438-116.365-121.438
	c-64.26,0-116.362,54.375-116.362,121.438c0,67.06,58.183,111.057,116.362,111.057c37.217,0,70.343-18.202,91.591-46.545
	C498.475,457.146,503.249,449.052,507.055,440.426z M401.314,450.386c14.546,0,27.843-5.574,38.068-14.794
	c12.331-11.117,17.76-27.572,17.76-35.546c0-33.532-23.668-60.72-55.828-60.72c-32.157,0-58.457,27.143-58.457,60.674
	C342.857,423.154,369.157,450.386,401.314,450.386z"/>
<path fill="#2C2B37" d="M31.204,407.783C30.749,407.22,31.658,408.374,31.204,407.783c-3.557-4.866-3.467-10.651,0.016-15.575
	c0.255-0.36,0.515-0.734,0.779-1.117C136.6,238.377,266.316,157.143,400.405,157.143c133.952,0,263.552,81.016,368.04,233.423
	c1.983,2.891,2.983,5.863,2.983,9.419c0,3.731-1.163,6.869-3.249,9.903C663.72,562.006,534.234,642.857,400.405,642.857
	C265.975,642.857,135.919,561.237,31.204,407.783z M112.545,381.5c-8.6,10.691-8.6,26.277,0,36.972
	c89.574,111.365,190.432,163.668,287.86,163.668c97.432,0,198.289-52.303,287.863-163.668c8.6-10.694,8.6-26.28,0-36.972
	c-89.574-111.364-190.432-163.639-287.863-163.639C302.977,217.861,202.119,270.136,112.545,381.5z"/>
</svg>
