<?xml version="1.0" encoding="utf-8"?>
<!-- Generator: Adobe Illustrator 16.0.0, SVG Export Plug-In . SVG Version: 6.00 Build 0)  -->
<!DOCTYPE svg PUBLIC "-//W3C//DTD SVG 1.1//EN" "http://www.w3.org/Graphics/SVG/1.1/DTD/svg11.dtd">
<svg version="1.1" id="Layer_1" xmlns="http://www.w3.org/2000/svg" xmlns:xlink="http://www.w3.org/1999/xlink" x="0px" y="0px"
	 width="800px" height="800px" viewBox="0 0 800 800" enable-background="new 0 0 800 800" xml:space="preserve">
<path fill="#2C2B37" d="M648.365,44.291c-10.931-6.398-24.911-2.601-31.223,8.48l-69.905,122.765
	c-47.626-22.292-96.926-33.691-146.832-33.691c-134.09,0-263.805,82.339-368.407,237.129l-0.415,0.609l-0.363,0.525
	c-3.484,4.989-3.573,10.854-0.018,15.786c77.187,114.651,168.142,189.74,264.466,221.3l-55.687,97.726
	c-6.313,11.083-2.567,25.252,8.365,31.648l9.898,5.792c10.932,6.396,24.911,2.603,31.224-8.48l377.16-662.149
	c6.313-11.081,2.568-25.25-8.366-31.648L648.365,44.291z M516.914,228.773c-38.763-17.066-77.902-25.384-116.509-25.384
	c-97.428,0-198.287,52.986-287.86,165.866c-8.599,10.837-8.599,26.634,0,37.471c67.144,84.617,140.627,135.592,214.255,155.817
	l38.5-67.595c-43.979-14.028-80.348-53.157-80.348-106.897c0-67.977,52.103-123.089,116.362-123.089
	c29.663,0,56.734,11.743,77.288,31.072L516.914,228.773z M446.828,351.82c-9.896-15.343-26.168-25.314-45.514-25.314
	c-32.157,0-58.457,27.511-58.457,61.5c0,22.463,24.091,48.711,54.354,50.92L446.828,351.82z"/>
<path fill="#2C2B37" d="M419.637,633.603c126.966-7.466,249.095-88.782,348.546-235.574c2.083-3.074,3.246-6.254,3.246-10.037
	c0-3.605-1-6.617-2.983-9.548c-38.22-56.509-79.803-103.333-123.726-139.998l-30.263,53.132
	c25.22,21.717,49.917,47.566,73.812,77.677c8.6,10.837,8.6,26.634,0,37.471c-72.052,90.803-151.403,142.866-230.4,159.76
	L419.637,633.603z"/>
</svg>
