<?xml version="1.0" encoding="utf-8"?>
<!-- Generator: Adobe Illustrator 16.0.0, SVG Export Plug-In . SVG Version: 6.00 Build 0)  -->
<!DOCTYPE svg PUBLIC "-//W3C//DTD SVG 1.1//EN" "http://www.w3.org/Graphics/SVG/1.1/DTD/svg11.dtd">
<svg version="1.1" xmlns="http://www.w3.org/2000/svg" xmlns:xlink="http://www.w3.org/1999/xlink" x="0px" y="0px" width="800px"
	 height="800px" viewBox="0 0 800 800" enable-background="new 0 0 800 800" xml:space="preserve">
<g id="Layer_1">
	<path fill="#484859" d="M768.309,103.929c15.395-46.147-30.237-89.201-75.411-71.147l-14.086,5.629L58.714,231.205
		c-36.552,11.364-41.009,61.252-7.05,78.907l285.845,148.586c0.929,0.479,1.865,0.926,2.814,1.334
		c0.405,0.932,0.843,1.854,1.316,2.763l148.718,285.592c17.668,33.929,67.603,29.478,78.977-7.043l192.32-617.474L768.309,103.929z
		 M122.091,271.319c-4.874,1.515-5.467,8.173-0.939,10.527l229.733,119.42c2.211,1.148,4.914,0.731,6.674-1.028l277.312-277.064
		c4.223-4.218-0.034-11.271-5.734-9.499L122.091,271.319z M529.18,678.034c-1.517,4.868-8.168,5.463-10.522,0.94L399.126,449.438
		c-1.151-2.212-0.734-4.918,1.031-6.681l277.32-277.073c4.22-4.218,11.269,0.044,9.494,5.742L529.18,678.034z"/>
</g>
<g id="Layer_2">
	<path fill="#32323F" d="M132.091,270.061c-4.874,1.516-5.467,8.174-0.939,10.527l229.733,119.42
		c2.211,1.148,4.914,0.731,6.674-1.028l277.312-277.064c4.223-4.218-0.034-11.271-5.734-9.499L132.091,270.061z"/>
</g>
</svg>
